<?xml version="1.0" encoding="UTF-8" standalone="no"?>
<!-- Created with Inkscape (http://www.inkscape.org/) -->

<svg
   xmlns:dc="http://purl.org/dc/elements/1.1/"
   xmlns:cc="http://creativecommons.org/ns#"
   xmlns:rdf="http://www.w3.org/1999/02/22-rdf-syntax-ns#"
   xmlns:svg="http://www.w3.org/2000/svg"
   xmlns="http://www.w3.org/2000/svg"
   xmlns:sodipodi="http://sodipodi.sourceforge.net/DTD/sodipodi-0.dtd"
   xmlns:inkscape="http://www.inkscape.org/namespaces/inkscape"
   width="135.46667mm"
   height="135.46667mm"
   viewBox="0 0 135.46668 135.46668"
   version="1.1"
   id="svg8"
   inkscape:version="0.92.3 (2405546, 2018-03-11)"
   sodipodi:docname="logo-white.svg"
   inkscape:export-filename="/home/felipefontoura/Desenvolvimento/curso-meu-primeiro-app/smart-money/mockup/logo.png"
   inkscape:export-xdpi="512"
   inkscape:export-ydpi="512">
  <defs
     id="defs2" />
  <sodipodi:namedview
     id="base"
     pagecolor="#ffffff"
     bordercolor="#666666"
     borderopacity="1.0"
     inkscape:pageopacity="0.0"
     inkscape:pageshadow="2"
     inkscape:zoom="0.5"
     inkscape:cx="-631.2778"
     inkscape:cy="445.48344"
     inkscape:document-units="px"
     inkscape:current-layer="layer1"
     showgrid="false"
     inkscape:window-width="1920"
     inkscape:window-height="1025"
     inkscape:window-x="0"
     inkscape:window-y="27"
     inkscape:window-maximized="1"
     fit-margin-top="0"
     fit-margin-left="0"
     fit-margin-right="0"
     fit-margin-bottom="0" />
  <metadata
     id="metadata5">
    <rdf:RDF>
      <cc:Work
         rdf:about="">
        <dc:format>image/svg+xml</dc:format>
        <dc:type
           rdf:resource="http://purl.org/dc/dcmitype/StillImage" />
        <dc:title></dc:title>
      </cc:Work>
    </rdf:RDF>
  </metadata>
  <g
     inkscape:label="Camada 1"
     inkscape:groupmode="layer"
     id="layer1"
     transform="translate(-56.885416,-98.033288)">
    <path
       style="opacity:1;fill:#ffffff;fill-opacity:1;stroke:none;stroke-width:3.22539663;stroke-linecap:round;stroke-linejoin:round;stroke-miterlimit:4;stroke-dasharray:none;stroke-dashoffset:0;stroke-opacity:1;paint-order:stroke fill markers"
       d="m 124.61875,98.033288 a 67.733335,67.733335 0 0 0 -67.733334,67.733332 67.733335,67.733335 0 0 0 67.733334,67.73334 67.733335,67.733335 0 0 0 67.73334,-67.73334 67.733335,67.733335 0 0 0 -67.73334,-67.733332 z m 51.28034,65.473352 c 0,0 -3.33123,18.08078 -4.06009,21.94939 -0.36262,-1.92472 -3.0679,-7.74063 -3.0679,-7.74063 0,0 -22.85944,30.30806 -45.19809,29.26638 -22.33864,-1.04168 -41.980884,-18.36807 -43.265665,-22.06279 2.055159,0.1469 16.179913,11.37693 38.884295,11.86058 22.70438,0.48378 45.11461,-21.73521 45.11461,-21.73521 0,0 -5.77085,-1.16809 -7.76583,-1.51347 3.82998,-2.3111 19.35867,-10.02425 19.35867,-10.02425 z"
       id="path844"
       inkscape:connector-curvature="0" />
  </g>
</svg>
